<svg width="139" height="105" viewBox="0 0 139 105" fill="none" xmlns="http://www.w3.org/2000/svg">
<path d="M117.055 54.2893L117.046 54.2891L117.037 54.289C117.009 54.2889 116.982 54.2777 116.962 54.2572L116.96 54.2553L87.9945 25.2238L87.9942 25.2235C87.9841 25.2133 87.9759 25.2012 87.9703 25.1876L87.1848 25.5124L87.9703 25.1876C87.9647 25.174 87.9617 25.1594 87.9617 25.1446C87.9617 25.1298 87.9647 25.1152 87.9703 25.1016C87.9759 25.088 87.9841 25.0758 87.9942 25.0656L87.9945 25.0653L108.593 4.41672C108.593 4.41649 108.593 4.41626 108.593 4.41604C108.614 4.39615 108.641 4.38538 108.668 4.3854L108.67 4.3854C108.684 4.38539 108.697 4.38815 108.71 4.39358C108.723 4.399 108.735 4.40702 108.746 4.41727L108.747 4.41906L137.708 33.4506L137.708 33.4509C137.719 33.4611 137.727 33.4733 137.732 33.4868C137.738 33.5005 137.741 33.5151 137.741 33.5299C137.741 33.5446 137.738 33.5593 137.732 33.5729C137.727 33.5864 137.719 33.5986 137.708 33.6088L137.708 33.6095L117.134 54.258C117.133 54.2583 117.133 54.2585 117.133 54.2588C117.122 54.2688 117.11 54.2766 117.097 54.2818C117.084 54.2871 117.07 54.2897 117.055 54.2893Z" fill="#D72A25" stroke="black" stroke-width="1.7"/>
<path d="M21.5514 54.289L21.5373 54.2891C21.5233 54.2891 21.5094 54.2863 21.4964 54.2809L21.1696 55.0655L21.4964 54.2809C21.4834 54.2755 21.4714 54.2674 21.4612 54.2572L21.4598 54.2557L0.883142 33.6047L0.882461 33.604C0.872306 33.5938 0.864136 33.5816 0.858524 33.5681C0.852914 33.5545 0.85 33.5399 0.85 33.5251C0.85 33.5103 0.852917 33.4956 0.858524 33.4821L0.0730366 33.1573L0.858526 33.4821C0.864138 33.4685 0.872305 33.4563 0.882454 33.4462L0.882842 33.4458L29.8435 4.40943L29.8438 4.40914C29.8539 4.39896 29.8658 4.391 29.8788 4.38561C29.8918 4.38022 29.9056 4.37747 29.9196 4.37747C29.9335 4.37747 29.9473 4.38021 29.9603 4.38561L30.2865 3.60068L29.9603 4.38561C29.9733 4.391 29.9852 4.39896 29.9953 4.40914L29.9957 4.40948L50.5963 25.0605L50.5966 25.0609C50.6068 25.071 50.6149 25.0832 50.6205 25.0968L50.6206 25.0968C50.6262 25.1104 50.6291 25.125 50.6291 25.1398C50.6291 25.1546 50.6262 25.1692 50.6206 25.1828L51.406 25.5076L50.6205 25.1828C50.6149 25.1964 50.6068 25.2085 50.5966 25.2187L50.5963 25.219L21.6357 54.2506L21.6356 54.2506L21.6296 54.2567C21.6192 54.2674 21.6069 54.2756 21.5935 54.2812C21.5801 54.2867 21.5658 54.2894 21.5514 54.2892L21.5514 54.289Z" fill="#D72A25" stroke="black" stroke-width="1.7"/>
<path d="M89.7308 68.908C89.9154 69.1333 90.053 69.3935 90.1353 69.6732C90.2176 69.9529 90.2429 70.2463 90.2099 70.536C90.2062 71.1859 90.0113 71.8203 89.6498 72.3597C89.2883 72.8992 88.7761 73.3197 88.1773 73.5689C87.5785 73.818 86.9198 73.8846 86.2834 73.7603C85.6471 73.636 85.0615 73.3263 84.5998 72.8701" stroke="#231815" stroke-width="2" stroke-miterlimit="10"/>
<path d="M85.1316 73.384C86.0897 74.2965 87.4072 75.8526 87.4072 77.2261C87.4078 77.7209 87.3112 78.2111 87.1227 78.6684C86.9342 79.1258 86.6576 79.5415 86.3088 79.8916C85.9599 80.2417 85.5457 80.5195 85.0897 80.709C84.6336 80.8986 84.1448 80.9961 83.6512 80.9961C83.105 80.9852 82.5672 80.8599 82.0721 80.6283C81.5771 80.3967 81.1359 80.064 80.7767 79.6514" stroke="#231815" stroke-width="2" stroke-miterlimit="10"/>
<path d="M78.5393 77.7303C79.0319 78.1935 79.3756 78.7933 79.5265 79.4532C79.6774 80.1131 79.6286 80.8031 79.3864 81.4351C79.1442 82.067 78.7196 82.6123 78.1668 83.0012C77.6139 83.3901 76.958 83.6049 76.2828 83.6183C75.8264 83.6163 75.3751 83.5226 74.9554 83.3428C74.5358 83.1629 74.1563 82.9006 73.8395 82.5714" stroke="#231815" stroke-width="2" stroke-miterlimit="10"/>
<path d="M72.34 81.2986C72.835 81.7421 73.1839 82.3258 73.3406 82.9725C73.4973 83.6191 73.4544 84.2983 73.2176 84.9199C72.9807 85.5416 72.5611 86.0765 72.0143 86.4538C71.4675 86.8312 70.8192 87.0331 70.1554 87.0329" stroke="#231815" stroke-width="2" stroke-miterlimit="10"/>
<path d="M25.979 50.9896C25.979 50.9896 24.949 55.9123 30.6118 59.5574L36.1404 63.5676" stroke="#231815" stroke-width="2" stroke-miterlimit="10"/>
<path d="M62.7487 81.7933C62.749 81.1497 62.5529 80.5213 62.1868 79.9925C61.8206 79.4638 61.3019 79.0599 60.7002 78.8352C60.0985 78.6104 59.4426 78.5755 58.8206 78.7352C58.1985 78.8948 57.6401 79.2413 57.2201 79.7282V79.7282C53.4545 83.6183 56.5734 85.8035 56.5734 85.8035C60.3389 88.2816 62.4134 83.4406 62.4134 83.4406L62.3367 83.383C62.614 82.8998 62.7564 82.3507 62.7487 81.7933V81.7933Z" stroke="#231815" stroke-width="2" stroke-miterlimit="10"/>
<path d="M70.1553 87.0329C67.7599 87.3787 62.399 83.431 62.399 83.431" stroke="#231815" stroke-width="2" stroke-miterlimit="10"/>
<path d="M43.9399 66.4491C44.3458 65.4976 44.385 64.4289 44.0499 63.45C43.7148 62.4712 43.0293 61.6519 42.126 61.1507C41.2228 60.6495 40.1662 60.5022 39.1608 60.7373C38.1555 60.9723 37.2729 61.573 36.6841 62.423C36.0952 63.2731 35.842 64.3119 35.9735 65.3383C36.1049 66.3648 36.6117 67.3058 37.3956 67.9792C38.1796 68.6525 39.1849 69.0102 40.2169 68.9831C41.2489 68.956 42.2341 68.5459 42.9817 67.8322" stroke="#231815" stroke-width="2" stroke-miterlimit="10"/>
<path d="M42.996 67.8322C42.8859 68.0724 42.723 68.5862 42.723 68.5862C42.723 68.5862 39.6568 73.8402 42.723 76.3952C45.7891 78.9502 48.472 76.448 50.9584 73.2783C51.4054 72.8164 51.7573 72.2707 51.9939 71.6724C52.2305 71.0741 52.3473 70.4349 52.3375 69.7914C52.3277 69.1479 52.1916 68.5126 51.9369 67.9218C51.6822 67.331 51.3139 66.7963 50.853 66.3482C50.3922 65.9001 49.8478 65.5474 49.251 65.3102C48.6541 65.073 48.0165 64.956 47.3746 64.9658C46.7327 64.9756 46.0989 65.1121 45.5096 65.3674C44.9202 65.6227 44.3868 65.9919 43.9398 66.4539L42.996 67.8322Z" stroke="#231815" stroke-width="2" stroke-miterlimit="10"/>
<path d="M58.5568 76.3232C58.5595 75.3959 58.2718 74.4911 57.7341 73.7364C57.1964 72.9818 56.4359 72.4155 55.56 72.1173C54.684 71.8191 53.7368 71.8041 52.8519 72.0745C51.967 72.3449 51.1891 72.8869 50.628 73.6242C49.641 74.7768 46.7953 78.5324 49.4782 80.9001C49.4782 80.9001 53.1623 85.5778 57.3926 79.3152C58.1405 78.4991 58.5559 77.4314 58.5568 76.3232V76.3232Z" stroke="#231815" stroke-width="2" stroke-miterlimit="10"/>
<path d="M111.884 49.6929C111.884 49.6929 99.1064 65.7863 88.442 67.4624" stroke="#231815" stroke-width="2" stroke-miterlimit="10"/>
<path d="M90.7655 29.3492C90.7655 29.3492 86.6502 32.543 81.4473 31.9522C77.8877 31.5488 74.3473 30.9917 70.8596 31.789C63.4329 33.558 56.5817 37.2037 50.9584 42.3786C50.9584 42.3786 48.2085 45.3466 50.9584 47.8632C50.9584 47.8632 53.7563 51.7292 60.7509 46.797C60.7509 46.797 66.0544 42.9549 74.7354 42.8349" stroke="#231815" stroke-width="2" stroke-miterlimit="10" stroke-linecap="round"/>
<path d="M67.5683 43.7233C70.7188 46.937 73.6389 50.3698 76.3068 53.996L89.8218 69.0089" stroke="#231815" stroke-width="2" stroke-miterlimit="10"/>
<path d="M47.7294 28.6C47.7294 28.6 52.6448 30.9245 59.3567 36.2842" stroke="#231815" stroke-width="2" stroke-miterlimit="10"/>
<path d="M92.361 49.2991C92.361 49.2991 88.8924 53.5446 76.2637 52.5217" stroke="#231815" stroke-width="2" stroke-miterlimit="10" stroke-linecap="round"/>
<path d="M85.2273 73.48L71.0225 59.98" stroke="#231815" stroke-width="2" stroke-miterlimit="10" stroke-linecap="round"/>
<path d="M80.8102 79.7187L62.514 63.7357" stroke="#231815" stroke-width="2" stroke-miterlimit="10" stroke-linecap="round"/>
<path d="M73.849 82.5858L59.1939 70.0607" stroke="#231815" stroke-width="2" stroke-miterlimit="10" stroke-linecap="round"/>
<path d="M90.0229 7.68005C83.3433 3.30337 75.5323 0.981339 67.5525 1.00011C59.5726 1.01889 51.7726 3.37764 45.1136 7.78571" stroke="#231815" stroke-width="2" stroke-miterlimit="10" stroke-linecap="round"/>
<path d="M47.5378 12.5835C53.477 8.64556 60.4365 6.53709 67.5573 6.51831C74.6781 6.49954 81.6486 8.57127 87.6084 12.4778" stroke="#231815" stroke-width="2" stroke-miterlimit="10" stroke-linecap="round"/>
<path d="M87.5701 91.4609C81.6289 95.3939 74.6642 97.4866 67.5444 97.4781C60.4246 97.4696 53.4649 95.3602 47.5331 91.4129" stroke="#231815" stroke-width="2" stroke-miterlimit="10" stroke-linecap="round"/>
<path d="M45.1136 96.2106C51.7636 100.633 59.5654 102.995 67.5457 103.002C75.526 103.009 83.3318 100.66 89.9894 96.249" stroke="#231815" stroke-width="2" stroke-miterlimit="10" stroke-linecap="round"/>
</svg>
