<svg width="40" height="41" viewBox="0 0 40 41" fill="none" xmlns="http://www.w3.org/2000/svg">
<path d="M26.6667 7.42944H13.3333C9.65143 7.42944 6.66666 10.4142 6.66666 14.0961V27.4294C6.66666 31.1113 9.65143 34.0961 13.3333 34.0961H26.6667C30.3486 34.0961 33.3333 31.1113 33.3333 27.4294V14.0961C33.3333 10.4142 30.3486 7.42944 26.6667 7.42944Z" stroke="white" stroke-width="2.75" stroke-linecap="round" stroke-linejoin="round"/>
<path d="M20 25.7627C22.7614 25.7627 25 23.5241 25 20.7627C25 18.0013 22.7614 15.7627 20 15.7627C17.2386 15.7627 15 18.0013 15 20.7627C15 23.5241 17.2386 25.7627 20 25.7627Z" stroke="white" stroke-width="2.75" stroke-linecap="round" stroke-linejoin="round"/>
<path d="M27.5 13.2627V13.2637" stroke="white" stroke-width="2.75" stroke-linecap="round" stroke-linejoin="round"/>
</svg>
