<svg width="34" height="32" viewBox="0 0 34 32" fill="none" xmlns="http://www.w3.org/2000/svg">
<g clip-path="url(#clip0)">
<path d="M16.9 2.14258C8.32 2.14258 1.37 7.74258 1.37 14.6626C1.37 19.2526 3.93 23.0827 8.5 25.2627C8.66 26.1327 9.33 28.4326 7.41 30.2726C7.41 30.2726 10.54 29.7426 12.38 26.6426C13.81 26.9926 15.33 27.1826 16.9 27.1826C25.48 27.1826 32.43 21.5826 32.43 14.6626C32.43 7.74258 25.48 2.14258 16.9 2.14258Z" stroke="white" stroke-width="2.6" stroke-miterlimit="10" stroke-linecap="round" stroke-linejoin="round"/>
<path d="M8 14.5339C8 11.8554 10.0452 9.87866 12.8007 9.87866C14.1357 9.87866 15.3423 10.3237 16.1467 11.2136L15.5306 11.8298C14.7861 11.0681 13.8704 10.743 12.8178 10.743C10.61 10.743 8.94132 12.3689 8.94132 14.5339C8.94132 16.699 10.6015 18.3249 12.8178 18.3249C13.8619 18.3249 14.7775 17.9997 15.5306 17.2295L16.1467 17.8457C15.3337 18.7356 14.1271 19.1977 12.7836 19.1977C10.0367 19.1892 8 17.221 8 14.5339Z" stroke="white" stroke-width="1.8" stroke-miterlimit="10" stroke-linecap="round" stroke-linejoin="round"/>
<path d="M25.9425 15.1243V19.1121H25.0098V15.2099C25.0098 13.7551 24.2482 13.0106 22.9389 13.0106C21.4584 13.0106 20.5342 13.9263 20.5342 15.5009V19.1121H19.61V9.40796H20.5428V13.4385C21.0562 12.6427 21.9548 12.1806 23.1186 12.1806C24.7958 12.1806 25.9425 13.1476 25.9425 15.1243Z" stroke="white" stroke-width="1.8" stroke-miterlimit="10" stroke-linecap="round" stroke-linejoin="round"/>
</g>
<defs>
<clipPath id="clip0">
<rect width="33.81" height="30.87" fill="white" transform="translate(0 0.762695)"/>
</clipPath>
</defs>
</svg>
