<svg width="122" height="141" viewBox="0 0 122 141" fill="none" xmlns="http://www.w3.org/2000/svg">
<g clip-path="url(#clip0)">
<path d="M13.5365 85.8267C20.6484 85.8267 26.4137 83.9298 26.4137 81.5897C26.4137 79.2497 20.6484 77.3528 13.5365 77.3528C6.42465 77.3528 0.659355 79.2497 0.659355 81.5897C0.659355 83.9298 6.42465 85.8267 13.5365 85.8267Z" stroke="#231815" stroke-width="2" stroke-linecap="round" stroke-linejoin="round"/>
<path d="M105.806 58.8732C112.918 58.8732 118.683 56.9763 118.683 54.6363C118.683 52.2962 112.918 50.3993 105.806 50.3993C98.6944 50.3993 92.9291 52.2962 92.9291 54.6363C92.9291 56.9763 98.6944 58.8732 105.806 58.8732Z" stroke="#231815" stroke-width="2" stroke-linecap="round" stroke-linejoin="round"/>
<path d="M35.8556 35.4207C42.9674 35.4207 48.7327 33.5238 48.7327 31.1837C48.7327 28.8437 42.9674 26.9468 35.8556 26.9468C28.7437 26.9468 22.9784 28.8437 22.9784 31.1837C22.9784 33.5238 28.7437 35.4207 35.8556 35.4207Z" stroke="#231815" stroke-width="2" stroke-linecap="round" stroke-linejoin="round"/>
<path d="M46.2536 106.766C43.8931 105.765 42.5151 104.558 42.5151 103.259C42.5151 99.7907 52.3064 96.9859 64.3858 96.9859C68.0374 96.9707 71.6843 97.2501 75.2915 97.8214" stroke="#231815" stroke-width="2" stroke-linecap="round" stroke-linejoin="round"/>
<path d="M69.3903 109.365C67.7814 109.471 66.0935 109.531 64.3858 109.531C60.6918 109.548 57.0026 109.262 53.3548 108.676" stroke="#231815" stroke-width="2" stroke-linecap="round" stroke-linejoin="round"/>
<path d="M58.9131 89.699C60.6714 89.5884 62.4846 89.5332 64.3528 89.5332C69.1846 89.5166 74.0082 89.9338 78.7663 90.7797" stroke="#231815" stroke-width="2" stroke-linecap="round" stroke-linejoin="round"/>
<path d="M38.9414 112.316C33.3632 109.896 29.961 106.68 29.961 103.146C29.961 98.4513 35.9545 94.3138 45.0733 91.8738" stroke="#231815" stroke-width="2" stroke-linecap="round" stroke-linejoin="round"/>
<path d="M70.0364 116.573C68.1836 116.692 66.2847 116.758 64.3528 116.758C59.2157 116.78 54.0885 116.303 49.0426 115.333" stroke="#231815" stroke-width="2" stroke-linecap="round" stroke-linejoin="round"/>
<path d="M64.3528 103.073C64.1987 103.073 64.0495 103.019 63.9308 102.92C63.7067 102.735 41.7964 84.096 41.7964 54.3246C41.7964 48.3086 44.1728 42.539 48.403 38.285C52.6331 34.0311 58.3705 31.6412 64.3528 31.6412C70.3351 31.6412 76.0725 34.0311 80.3026 38.285C84.5328 42.539 86.9092 48.3086 86.9092 54.3246C86.9092 84.096 64.9924 102.728 64.7748 102.92C64.6562 103.019 64.5069 103.073 64.3528 103.073Z" fill="#D72A25"/>
<path d="M64.3528 32.311C67.2284 32.3101 70.076 32.8788 72.733 33.9846C75.39 35.0905 77.8044 36.7117 79.8383 38.7559C81.8723 40.8 83.4859 43.2271 84.5872 45.8983C85.6884 48.5696 86.2556 51.4329 86.2565 54.3246C86.2565 84.1292 64.3594 102.41 64.3594 102.41C64.3594 102.41 42.4623 84.1292 42.4623 54.3246C42.4641 48.4868 44.7709 42.8886 48.8758 38.7606C52.9807 34.6326 58.5476 32.3127 64.3528 32.311ZM64.3528 30.9849C58.1977 30.9919 52.2968 33.4538 47.9445 37.8306C43.5922 42.2074 41.144 48.1416 41.137 54.3313C41.137 70.0591 47.2096 82.5644 52.3064 90.2824C55.4406 95.1521 59.2106 99.5767 63.5154 103.438C63.7527 103.635 64.0513 103.743 64.3594 103.743C64.6675 103.743 64.9661 103.635 65.2034 103.438C69.5041 99.5726 73.2736 95.1486 76.4124 90.2824C81.5092 82.5644 87.5818 70.0591 87.5818 54.3313C87.5731 48.1398 85.1225 42.2046 80.7677 37.8279C76.413 33.4511 70.5096 30.9901 64.3528 30.9849Z" fill="#231815"/>
<path d="M81.9114 132.38C87.5554 135.032 91.6698 127.188 92.461 122.733L89.4478 123.131C89.7322 123.564 89.8494 124.088 89.7775 124.603C89.7792 125.042 89.9534 125.462 90.2622 125.773C90.5709 126.083 90.9892 126.258 91.4258 126.26C91.8593 126.248 92.2719 126.07 92.5785 125.762C92.8852 125.453 93.0626 125.038 93.0742 124.603C94.327 115.028 92.3292 105.414 92.9819 95.8124L89.7379 96.25L91.6632 101.196C91.9573 101.859 92.2062 102.542 92.4083 103.239C92.4182 103.437 92.4403 103.634 92.4742 103.829C92.6324 104.014 92.3555 103.882 92.4742 103.829C92.5929 103.776 93.0017 103.438 92.5533 103.67L95.0325 105.102C94.7292 101.369 93.1336 97.8082 93.1665 94.042C93.1665 92.1258 93.4501 90.2493 93.3314 88.3331C93.1699 86.28 92.8991 84.237 92.5204 82.213L90.9313 84.3149C90.5225 84.3149 90.6346 84.1823 90.417 84.0563C90.4072 84.038 90.4021 84.0175 90.4021 83.9967C90.4021 83.9758 90.4072 83.9553 90.417 83.937V84.0298C90.4698 84.0298 90.417 83.9569 90.3577 83.99C90.2028 84.0692 90.039 84.1293 89.8698 84.1691C89.4851 84.252 89.0873 84.252 88.7027 84.1691C88.9005 84.1691 88.7555 84.4542 88.8214 84.1691C88.8873 83.8839 88.5774 83.506 88.4983 83.2938C87.6016 81.3046 85.4191 80.5819 84.3642 78.7717C83.7444 77.7175 83.3092 76.5637 82.7158 75.5028C82.0835 74.3884 81.3578 73.3303 80.5465 72.34C79.9927 71.677 78.9707 70.9078 78.8058 70.0127C78.641 69.1175 79.3003 69.2104 79.8542 68.6866L78.6871 69.1706H78.7267L77.8959 68.9452C78.1261 69.0702 78.3787 69.148 78.639 69.1742C78.8993 69.2004 79.1622 69.1744 79.4124 69.0977L79.8542 69.0115C80.2366 68.9253 79.8542 69.0115 79.8542 69.0115L78.6871 68.5274C79.241 68.965 79.4454 69.7475 80.0388 70.205C81.1399 71.0736 82.7949 70.5763 82.8476 69.038C82.94 66.578 79.9201 65.5834 78.0344 66.4918C76.7486 67.1085 77.1047 69.2037 78.43 69.522C78.9179 69.6414 79.1685 70.0922 79.4322 70.51C79.9729 71.3653 80.4806 72.2406 81.0081 73.1092C81.9312 74.6342 83.0323 76.1327 83.2828 77.9363L84.8719 75.841C85.0763 75.9736 85.1422 76.0001 85.0763 75.9073C85.0103 75.8145 84.8257 75.6421 84.707 75.5028C84.4169 75.1912 84.1334 74.8729 83.8433 74.5547L82.34 72.897C81.8388 72.34 81.3311 71.7897 80.8366 71.2327C80.7245 71.1067 80.5399 70.762 80.3883 70.689C79.7289 70.3575 79.3927 72.6053 78.7663 70.5431C79.2212 72.0483 81.5487 72.1875 81.9443 70.5431C80.9619 70.5896 80.5861 70.8084 80.8235 71.2062C80.8685 71.2823 80.9292 71.3478 81.0015 71.3985C81.1423 71.5943 81.3037 71.7744 81.4828 71.9356C81.7927 72.3003 82.096 72.6782 82.3795 73.0694C82.9908 73.9303 83.5394 74.8344 84.0213 75.7747C84.9971 77.6644 87.8455 75.9935 86.8697 74.0971C85.9657 72.3507 84.8422 70.7284 83.5268 69.2701C83.2426 68.8877 82.8825 68.5689 82.4694 68.3338C82.0562 68.0986 81.599 67.9523 81.1267 67.9041C80.5914 67.8881 80.0665 68.0551 79.6378 68.3779C79.209 68.7007 78.9018 69.1601 78.7663 69.6811H81.9443C81.835 69.3187 81.6443 68.9864 81.387 68.7098C81.1297 68.4332 80.8127 68.2197 80.4604 68.0858C80.1081 67.9519 79.7299 67.9012 79.355 67.9375C78.9801 67.9738 78.6185 68.0963 78.2981 68.2954C76.7948 69.2502 76.808 71.3255 77.7443 72.6649C78.777 73.9954 79.8936 75.2578 81.0872 76.4444C82.0762 77.5384 83.1905 79.3022 84.8719 79.1762C85.1235 79.1687 85.3703 79.1047 85.5941 78.9889C85.8179 78.873 86.0131 78.7083 86.1655 78.5068C86.3178 78.3053 86.4234 78.0721 86.4746 77.8242C86.5257 77.5763 86.521 77.3201 86.4609 77.0743C86.1444 74.7934 84.6741 72.8108 83.5136 70.8879C82.4652 69.1573 81.4564 66.8565 79.3069 66.3459L79.6959 69.3761C79.5707 69.4358 79.4915 69.3761 79.597 69.4425C79.8014 69.5751 79.3597 69.3032 79.7817 69.4955C79.6168 69.4226 79.8674 69.5618 79.8674 69.5684C79.8674 69.5751 79.5443 69.2104 79.5509 69.0579L82.3663 67.8843C81.6279 67.3074 81.463 66.2797 80.4872 65.8619C80.0647 65.7034 79.6034 65.6826 79.1685 65.8023C79.0195 65.8214 78.8719 65.8502 78.7267 65.8885C78.3838 65.9813 78.9245 65.8885 78.7267 65.8885L79.5575 66.1139C78.7992 65.5503 77.8761 66.0277 77.2893 66.5648L78.0146 66.1404C75.3442 67.2013 74.8036 70.3774 76.4256 72.6185C77.1838 73.6662 78.1267 74.5547 78.8652 75.6288C79.603 76.7351 80.2513 77.8992 80.8037 79.1099C81.3194 80.3436 82.0774 81.4599 83.0323 82.392C83.8595 82.9935 84.6258 83.6753 85.3202 84.4276C85.5681 84.9391 85.7882 85.4637 85.9796 85.9991C86.3491 86.6159 86.9201 87.0846 87.595 87.3252C88.8334 87.7323 90.1758 87.6806 91.3797 87.1793C92.0625 86.9431 92.6529 86.4946 93.0654 85.8986C93.4779 85.3025 93.6911 84.59 93.6742 83.864C93.66 83.1277 93.3681 82.4243 92.8577 81.8961C92.3472 81.368 91.6563 81.0547 90.9247 81.0195C89.7577 80.9532 89.1643 82.1268 89.3357 83.1148C89.6815 84.9512 89.9193 86.8066 90.0478 88.6712C90.1401 90.5809 89.8368 92.4706 89.8632 94.3736C89.9093 98.0602 91.439 101.482 91.7291 105.122C91.7349 105.411 91.815 105.694 91.9616 105.943C92.1083 106.192 92.3165 106.399 92.566 106.543C92.8156 106.687 93.0979 106.764 93.3857 106.766C93.6735 106.768 93.9569 106.695 94.2083 106.554C95.9688 105.632 95.982 103.431 95.3951 101.78C94.6303 99.625 93.7336 97.5165 92.9094 95.3881C92.7947 95.01 92.5499 94.6853 92.2189 94.4721C91.8878 94.2589 91.4921 94.1712 91.1027 94.2247C90.7132 94.2781 90.3553 94.4692 90.0932 94.7638C89.8311 95.0583 89.6817 95.4371 89.672 95.8323C89.0126 105.433 90.9907 115.061 89.7643 124.622H93.061C93.1478 123.518 92.8747 122.414 92.283 121.48C91.5907 120.359 89.5401 120.399 89.2698 121.877C88.9192 123.861 88.1429 125.743 86.995 127.394C86.3884 128.269 84.8059 130.132 83.54 129.536C83.1586 129.326 82.7117 129.27 82.2911 129.381C81.8705 129.492 81.5081 129.761 81.2784 130.132C81.0632 130.514 81.0048 130.964 81.1157 131.388C81.2266 131.812 81.498 132.175 81.8718 132.4L81.9114 132.38Z" fill="white"/>
<path d="M75.7662 71.2062C75.4824 70.648 75.3355 70.0296 75.3376 69.4027C75.3399 68.577 75.5977 67.7725 76.0751 67.1007C76.5524 66.429 77.2259 65.9232 78.0019 65.6536C78.778 65.384 79.6182 65.3639 80.4061 65.5961C81.1941 65.8282 81.8907 66.3012 82.3993 66.9493" stroke="#231815" stroke-width="2" stroke-miterlimit="10" stroke-linecap="round"/>
<path d="M80.5795 98.8227C79.6762 97.4568 78.0476 95.3284 78.0476 93.6773C78.0613 92.2888 78.6159 90.9612 79.5923 89.9793C80.5686 88.9974 81.8889 88.4397 83.2696 88.4259C84.7871 88.524 86.2066 89.214 87.2257 90.3488" stroke="#231815" stroke-width="2" stroke-miterlimit="10" stroke-linecap="round"/>
<path d="M75.7069 106.72C74.8695 105.268 73.353 103.816 73.353 101.952C73.353 99.4393 74.9156 97.6292 77.4146 97.6292C78.5684 97.6292 79.9267 97.7087 80.7113 99.0216" stroke="#231815" stroke-width="2" stroke-miterlimit="10" stroke-linecap="round"/>
<path d="M69.4298 111.713C69.4035 111.526 69.3903 111.338 69.3903 111.149C69.3903 109.96 69.8599 108.82 70.6958 107.98C71.5316 107.139 72.6653 106.667 73.8475 106.667C75.2255 106.667 75.9113 107.33 76.7223 108.318" stroke="#231815" stroke-width="2" stroke-miterlimit="10" stroke-linecap="round"/>
<path d="M69.3903 111.149C69.3903 111.149 68.5595 132.805 100.288 140.324" stroke="#231815" stroke-width="2" stroke-miterlimit="10" stroke-linecap="round"/>
<path d="M75.7398 71.2195L94.2874 102.045" stroke="#231815" stroke-width="2" stroke-miterlimit="10" stroke-linecap="round"/>
<path d="M82.3729 66.9758L107.646 102.178" stroke="#231815" stroke-width="2" stroke-miterlimit="10" stroke-linecap="round"/>
<path d="M80.1839 98.259L88.8412 110.698" stroke="#231815" stroke-width="2" stroke-miterlimit="10" stroke-linecap="round"/>
<path d="M75.7398 106.72L83.3224 118.953" stroke="#231815" stroke-width="2" stroke-miterlimit="10" stroke-linecap="round"/>
<path d="M110.316 91.5422C110.316 91.5422 123.642 106.01 120.985 121.088" stroke="#231815" stroke-width="2" stroke-miterlimit="10" stroke-linecap="round"/>
<path d="M101.29 93.3127C101.546 92.3882 102.052 91.5535 102.752 90.9015C103.452 90.2495 104.318 89.8059 105.254 89.6202C106.191 89.4345 107.16 89.5141 108.053 89.85C108.947 90.1858 109.731 90.7648 110.316 91.5224" stroke="#231815" stroke-width="2" stroke-miterlimit="10" stroke-linecap="round"/>
<path d="M64.3528 68.05C61.6463 68.0513 59.0002 67.2454 56.7493 65.7341C54.4983 64.2228 52.7437 62.074 51.7074 59.5597C50.671 57.0454 50.3995 54.2785 50.9272 51.609C51.4549 48.9395 52.7581 46.4873 54.6719 44.5627C56.5857 42.6382 59.0241 41.3277 61.6787 40.797C64.3333 40.2663 67.0847 40.5394 69.585 41.5815C72.0852 42.6237 74.2219 44.3882 75.7248 46.6518C77.2276 48.9154 78.0291 51.5764 78.0278 54.2981C78.0243 57.9443 76.5824 61.4401 74.0186 64.0183C71.4548 66.5965 67.9786 68.0465 64.3528 68.05Z" fill="white"/>
<path d="M64.3528 41.2026C66.9275 41.2065 69.4433 41.9779 71.5822 43.4192C73.721 44.8606 75.3871 46.9072 76.3696 49.3004C77.3522 51.6936 77.6073 54.3261 77.1026 56.865C76.5979 59.404 75.3561 61.7355 73.5341 63.5649C71.7121 65.3944 69.3918 66.6396 66.8663 67.1433C64.3407 67.647 61.7234 67.3865 59.3451 66.3948C56.9667 65.403 54.9341 63.7245 53.5041 61.5714C52.0741 59.4183 51.3108 56.8872 51.3108 54.2981C51.3099 52.5786 51.646 50.8759 52.2997 49.2871C52.9534 47.6984 53.912 46.2547 55.1207 45.0386C56.3294 43.8225 57.7645 42.8577 59.344 42.1995C60.9236 41.5414 62.6166 41.2026 64.3264 41.2026H64.3528ZM64.3264 39.8765C61.4898 39.8752 58.7165 40.7199 56.3572 42.3037C53.998 43.8876 52.1589 46.1395 51.0724 48.7746C49.986 51.4096 49.7011 54.3096 50.2537 57.1075C50.8063 59.9055 52.1716 62.4757 54.1769 64.4933C56.1823 66.5109 58.7376 67.885 61.5196 68.442C64.3017 68.999 67.1855 68.7138 69.8063 67.6225C72.4272 66.5312 74.6673 64.6827 76.2434 62.3109C77.8195 59.9392 78.6608 57.1507 78.6608 54.2981C78.6573 50.4754 77.1461 46.8103 74.4589 44.1067C71.7716 41.403 68.1277 39.8817 64.3264 39.8765Z" fill="#231815"/>
<path d="M13.5299 80.8604C13.3775 80.8626 13.2296 80.8083 13.1145 80.7079C12.9958 80.6084 1.24618 70.6095 1.24618 54.6562C1.20823 53.0086 1.49815 51.37 2.09891 49.8367C2.69967 48.3034 3.59915 46.9063 4.74447 45.7276C5.8898 44.5488 7.25787 43.6122 8.76829 42.9727C10.2787 42.3332 11.901 42.0038 13.5398 42.0038C15.1786 42.0038 16.8009 42.3332 18.3113 42.9727C19.8217 43.6122 21.1898 44.5488 22.3351 45.7276C23.4805 46.9063 24.3799 48.3034 24.9807 49.8367C25.5814 51.37 25.8714 53.0086 25.8334 54.6562C25.8334 70.6095 14.0772 80.6084 13.9651 80.7079C13.843 80.8097 13.6885 80.8638 13.5299 80.8604Z" fill="#D72A25"/>
<path d="M13.5299 42.9531C16.6164 42.9531 19.5764 44.1861 21.7589 46.3808C23.9414 48.5756 25.1675 51.5523 25.1675 54.6561C25.1675 70.4834 13.5299 80.1972 13.5299 80.1972C13.5299 80.1972 1.89893 70.4834 1.89893 54.6561C1.89893 51.5534 3.12412 48.5777 5.30516 46.3832C7.48621 44.1886 10.4446 42.9548 13.5299 42.9531ZM13.5299 41.627C10.0954 41.6305 6.8026 43.0045 4.37463 45.4474C1.94666 47.8903 0.581968 51.2023 0.580223 54.6561C0.580223 70.921 12.198 80.8073 12.6925 81.2184C12.929 81.4151 13.2263 81.5228 13.5332 81.5228C13.8401 81.5228 14.1374 81.4151 14.3739 81.2184C14.8684 80.8073 26.4862 70.921 26.4862 54.6561C26.4827 51.2017 25.1165 47.8897 22.6875 45.447C20.2585 43.0043 16.9651 41.6305 13.5299 41.627Z" fill="#231815"/>
<path d="M13.5299 62.2549C12.0315 62.2549 10.5668 61.808 9.32094 60.9709C8.07508 60.1337 7.10405 58.9439 6.53064 57.5518C5.95724 56.1597 5.8072 54.6278 6.09952 53.15C6.39184 51.6721 7.11339 50.3146 8.17291 49.2491C9.23242 48.1837 10.5823 47.4581 12.0519 47.1641C13.5215 46.8701 15.0448 47.021 16.4291 47.5976C17.8134 48.1743 18.9966 49.1508 19.8291 50.4036C20.6616 51.6565 21.1059 53.1295 21.1059 54.6363C21.1041 56.6563 20.3054 58.5931 18.885 60.0215C17.4646 61.4499 15.5386 62.2531 13.5299 62.2549Z" fill="white"/>
<path d="M13.5299 47.6807C14.8982 47.6794 16.2361 48.0863 17.3744 48.8497C18.5127 49.6132 19.4002 50.6991 19.9247 51.9699C20.4492 53.2407 20.5872 54.6395 20.321 55.9891C20.0549 57.3388 19.3967 58.5788 18.4296 59.5522C17.4626 60.5256 16.2302 61.1887 14.8883 61.4576C13.5464 61.7266 12.1554 61.5892 10.8912 61.063C9.62694 60.5367 8.54633 59.6452 7.78603 58.5012C7.02573 57.3572 6.61991 56.0122 6.61991 54.6363C6.61991 52.7927 7.34771 51.0245 8.6434 49.7203C9.93909 48.4161 11.6967 47.6825 13.5299 47.6807ZM13.5299 46.3546C11.9011 46.3546 10.3089 46.8403 8.95463 47.7503C7.60034 48.6603 6.5448 49.9537 5.92149 51.467C5.29818 52.9803 5.13509 54.6455 5.45285 56.2519C5.77061 57.8584 6.55495 59.3341 7.70668 60.4923C8.85841 61.6505 10.3258 62.4392 11.9233 62.7588C13.5208 63.0783 15.1766 62.9143 16.6814 62.2875C18.1863 61.6607 19.4724 60.5992 20.3773 59.2373C21.2822 57.8754 21.7652 56.2742 21.7652 54.6363C21.7635 52.4404 20.8953 50.3349 19.3512 48.7822C17.8072 47.2295 15.7135 46.3564 13.5299 46.3546Z" fill="#231815"/>
<path d="M105.806 53.6086C105.652 53.6089 105.503 53.5549 105.384 53.4561C104.956 53.1046 94.9863 44.6174 94.9863 30.6467C94.9507 29.1957 95.2041 27.7521 95.7317 26.4011C96.2593 25.05 97.0503 23.8188 98.0583 22.7798C99.0662 21.7408 100.271 20.9152 101.601 20.3515C102.931 19.7877 104.36 19.4973 105.803 19.4973C107.246 19.4973 108.675 19.7877 110.005 20.3515C111.335 20.9152 112.54 21.7408 113.548 22.7798C114.556 23.8188 115.347 25.05 115.874 26.4011C116.402 27.7521 116.655 29.1957 116.62 30.6467C116.62 44.6174 106.65 53.1046 106.228 53.4561C106.11 53.5549 105.96 53.6089 105.806 53.6086Z" fill="#D72A25"/>
<path d="M105.806 20.4289C108.5 20.4307 111.083 21.508 112.987 23.424C114.891 25.34 115.96 27.9379 115.96 30.6467C115.96 44.4715 105.806 52.9454 105.806 52.9454C105.806 52.9454 95.6457 44.4715 95.6457 30.6467C95.6457 27.9368 96.7162 25.3378 98.6217 23.4216C100.527 21.5054 103.112 20.4289 105.806 20.4289ZM105.806 19.1028C102.763 19.1063 99.8451 20.3237 97.6931 22.4878C95.541 24.6519 94.3305 27.5861 94.327 30.6467C94.327 44.929 104.527 53.6085 104.962 53.9666C105.199 54.1633 105.496 54.271 105.803 54.271C106.11 54.271 106.407 54.1633 106.644 53.9666C107.079 53.6085 117.279 44.929 117.279 30.6467C117.276 27.5873 116.066 24.6541 113.915 22.4901C111.765 20.3262 108.849 19.108 105.806 19.1028Z" fill="#231815"/>
<path d="M105.806 37.3701C109.506 37.3701 112.505 34.354 112.505 30.6334C112.505 26.9129 109.506 23.8967 105.806 23.8967C102.107 23.8967 99.1073 26.9129 99.1073 30.6334C99.1073 34.354 102.107 37.3701 105.806 37.3701Z" fill="white"/>
<path d="M105.806 24.5598C107.001 24.5598 108.169 24.916 109.162 25.5834C110.155 26.2507 110.929 27.1993 111.386 28.3091C111.843 29.419 111.963 30.6401 111.73 31.8183C111.497 32.9965 110.922 34.0787 110.077 34.9281C109.232 35.7776 108.156 36.356 106.985 36.5903C105.813 36.8247 104.599 36.7044 103.495 36.2447C102.391 35.785 101.448 35.0066 100.785 34.0077C100.121 33.0089 99.7666 31.8347 99.7666 30.6334C99.7666 29.0226 100.403 27.4777 101.536 26.3387C102.668 25.1997 104.204 24.5598 105.806 24.5598ZM105.806 23.2336C104.351 23.2323 102.927 23.6652 101.716 24.4775C100.505 25.2898 99.5613 26.445 99.0033 27.7971C98.4454 29.1491 98.2987 30.6371 98.5819 32.073C98.8651 33.5088 99.5654 34.8279 100.594 35.8635C101.623 36.899 102.934 37.6044 104.362 37.8905C105.789 38.1766 107.269 38.0304 108.614 37.4706C109.959 36.9107 111.109 35.9622 111.918 34.7452C112.726 33.5282 113.158 32.0972 113.158 30.6334C113.156 28.6726 112.381 26.7924 111.003 25.4053C109.625 24.0181 107.756 23.2372 105.806 23.2336Z" fill="#231815"/>
<path d="M35.8556 30.7262C35.7015 30.7265 35.5522 30.6726 35.4336 30.5737C35.0578 30.2555 26.2027 22.7363 26.2027 10.3504C26.2684 7.82413 27.3125 5.42356 29.1125 3.66016C30.9125 1.89675 33.3261 0.909912 35.8391 0.909912C38.3521 0.909912 40.7657 1.89675 42.5657 3.66016C44.3657 5.42356 45.4098 7.82413 45.4755 10.3504C45.4755 22.7363 36.6336 30.2422 36.2446 30.5737C36.1348 30.6656 35.9983 30.7191 35.8556 30.7262Z" fill="#D72A25"/>
<path d="M35.8556 1.32612C37.0346 1.32525 38.2022 1.55804 39.2917 2.01116C40.3812 2.46428 41.3713 3.12887 42.2053 3.96694C43.0393 4.805 43.7009 5.80012 44.1523 6.89543C44.6036 7.99074 44.836 9.16476 44.836 10.3504C44.836 22.564 35.8556 30.0632 35.8556 30.0632C35.8556 30.0632 26.9148 22.564 26.9148 10.3504C26.9148 7.95701 27.8602 5.66166 29.5431 3.96928C31.226 2.2769 33.5086 1.32612 35.8886 1.32612H35.8556ZM35.8886 0C33.1594 0.00175652 30.5424 1.09282 28.6126 3.03351C26.6827 4.97421 25.5978 7.60584 25.5961 10.3504C25.5961 23.0414 34.6622 30.7594 35.0446 31.0843C35.2832 31.2796 35.5809 31.3872 35.8886 31.3893C36.1967 31.3899 36.4953 31.282 36.7325 31.0843C37.1215 30.7594 46.1876 23.0414 46.1876 10.3504C46.1841 7.60523 45.0977 4.97361 43.1669 3.03311C41.236 1.09261 38.6184 0.0017541 35.8886 0Z" fill="#231815"/>
<path d="M35.8556 16.3644C39.1657 16.3644 41.8491 13.6659 41.8491 10.3372C41.8491 7.00842 39.1657 4.30994 35.8556 4.30994C32.5455 4.30994 29.8621 7.00842 29.8621 10.3372C29.8621 13.6659 32.5455 16.3644 35.8556 16.3644Z" fill="white"/>
<path d="M35.8556 4.97297C36.9106 4.97297 37.9419 5.28759 38.8191 5.87701C39.6963 6.46644 40.38 7.3042 40.7837 8.28438C41.1874 9.26455 41.2931 10.3431 41.0873 11.3837C40.8814 12.4242 40.3734 13.38 39.6274 14.1302C38.8814 14.8804 37.931 15.3913 36.8962 15.5982C35.8615 15.8052 34.789 15.699 33.8143 15.293C32.8396 14.887 32.0065 14.1994 31.4204 13.3173C30.8343 12.4352 30.5214 11.3981 30.5214 10.3371C30.5214 8.91447 31.0834 7.55008 32.0838 6.5441C33.0841 5.53813 34.4409 4.97297 35.8556 4.97297ZM35.8556 3.64685C34.5398 3.64685 33.2535 4.03923 32.1595 4.77437C31.0654 5.50951 30.2127 6.55439 29.7091 7.77688C29.2056 8.99937 29.0739 10.3446 29.3306 11.6424C29.5873 12.9401 30.2209 14.1323 31.1513 15.0679C32.0817 16.0036 33.2672 16.6407 34.5577 16.8989C35.8482 17.157 37.1859 17.0245 38.4015 16.5182C39.6172 16.0118 40.6562 15.1543 41.3872 14.0541C42.1183 12.9539 42.5085 11.6604 42.5085 10.3371C42.505 8.56384 41.8029 6.86419 40.556 5.61028C39.3091 4.35636 37.619 3.65036 35.8556 3.64685Z" fill="#231815"/>
<path d="M59.8824 52.2492C59.1087 51.9212 58.4481 51.3715 57.9828 50.6686C57.5175 49.9658 57.2681 49.1408 57.2657 48.2964C57.2632 47.452 57.5079 46.6256 57.9692 45.92C58.4304 45.2144 59.0879 44.6609 59.8597 44.3284C60.6315 43.9959 61.4836 43.8991 62.3097 44.05C63.1359 44.2009 63.8996 44.593 64.5058 45.1772C65.112 45.7615 65.5339 46.5122 65.7189 47.3358C65.9039 48.1594 65.8438 49.0196 65.5462 49.8092" fill="#231815"/>
<path d="M59.8824 52.2492C59.1087 51.9212 58.4481 51.3715 57.9828 50.6686C57.5175 49.9658 57.2681 49.1408 57.2657 48.2964C57.2632 47.452 57.5079 46.6256 57.9692 45.92C58.4304 45.2144 59.0879 44.6609 59.8597 44.3284C60.6315 43.9959 61.4836 43.8991 62.3097 44.05C63.1359 44.2009 63.8996 44.593 64.5058 45.1772C65.112 45.7615 65.5339 46.5122 65.7189 47.3358C65.9039 48.1594 65.8438 49.0196 65.5462 49.8092" stroke="#231815" stroke-width="2" stroke-miterlimit="10" stroke-linecap="round"/>
<path d="M66.8188 53.1178C66.9673 53.3212 67.0872 53.5444 67.1748 53.7809L69.0078 59.0854C69.2155 59.6765 69.1952 60.3245 68.9511 60.9014C68.707 61.4783 68.2567 61.9423 67.6891 62.2017C67.1178 62.4561 66.4722 62.4847 65.8809 62.282C65.2895 62.0792 64.7957 61.66 64.4979 61.1077L61.8605 56.1811C61.7421 55.9579 61.6555 55.7191 61.6033 55.4717" fill="#D72A25"/>
<path d="M66.8188 53.1178C66.9673 53.3212 67.0872 53.5444 67.1748 53.7809L69.0078 59.0854C69.2155 59.6765 69.1952 60.3245 68.9511 60.9014C68.707 61.4783 68.2567 61.9423 67.6891 62.2017V62.2017C67.1178 62.4561 66.4722 62.4847 65.8809 62.282C65.2895 62.0792 64.7957 61.66 64.4979 61.1077L61.8605 56.1811C61.7421 55.9579 61.6555 55.7191 61.6033 55.4717" stroke="#231815" stroke-width="1.7" stroke-linejoin="round"/>
<path d="M60.3242 56.5724C59.9918 56.5718 59.6668 56.4744 59.3883 56.292C59.1099 56.1097 58.8899 55.8501 58.7549 55.5447L58.4318 54.8087C58.3396 54.6015 58.2889 54.3781 58.2827 54.1512C58.2765 53.9243 58.315 53.6984 58.3959 53.4864C58.4767 53.2745 58.5984 53.0807 58.7539 52.9162C58.9095 52.7517 59.0958 52.6197 59.3022 52.5278L66.166 49.4711C66.3871 49.3765 66.6247 49.3269 66.8649 49.3252C67.1973 49.3258 67.5223 49.4232 67.8008 49.6056C68.0792 49.788 68.2992 50.0475 68.4342 50.3529L68.7573 51.0889C68.8493 51.2965 68.8997 51.5203 68.9054 51.7475C68.9111 51.9747 68.8721 52.2008 68.7906 52.4128C68.7091 52.6248 68.5867 52.8185 68.4305 52.9828C68.2743 53.147 68.0873 53.2786 67.8803 53.3699L61.0165 56.4266C60.7977 56.5211 60.5623 56.5707 60.3242 56.5724Z" fill="#D72A25"/>
<path d="M66.8649 49.9882C67.0725 49.9912 67.2745 50.0557 67.4457 50.1737C67.6169 50.2916 67.7498 50.4577 67.8276 50.6512L68.1573 51.3872C68.2132 51.5148 68.2435 51.6522 68.2466 51.7915C68.2497 51.9309 68.2255 52.0695 68.1753 52.1994C68.125 52.3294 68.0498 52.4481 67.954 52.5488C67.8581 52.6495 67.7435 52.7302 67.6166 52.7863L60.7527 55.843C60.6187 55.906 60.4721 55.9377 60.3242 55.9358C60.1157 55.9332 59.9126 55.8689 59.7403 55.751C59.5679 55.6331 59.4339 55.4668 59.3549 55.2728L59.0318 54.5368C58.975 54.4093 58.9439 54.2718 58.9404 54.1322C58.9369 53.9926 58.961 53.8537 59.0113 53.7235C59.0616 53.5934 59.1371 53.4746 59.2334 53.374C59.3298 53.2734 59.445 53.1931 59.5725 53.1377L66.4364 50.081C66.5704 50.018 66.7169 49.9862 66.8649 49.9882ZM66.8649 48.662C66.533 48.6597 66.2046 48.7299 65.9023 48.8676L59.0384 51.9243C58.753 52.0508 58.4952 52.2327 58.2797 52.4596C58.0643 52.6864 57.8954 52.9537 57.7827 53.2462C57.67 53.5387 57.6158 53.8507 57.6231 54.1643C57.6304 54.4779 57.6991 54.7869 57.8252 55.0738L58.1483 55.8098C58.3341 56.2343 58.6388 56.5952 59.0252 56.8484C59.4116 57.1016 59.863 57.236 60.3242 57.2354C60.6559 57.2363 60.984 57.1662 61.2868 57.0299L68.1507 53.9732C68.4361 53.8466 68.6939 53.6647 68.9094 53.4379C69.1248 53.2111 69.2938 52.9438 69.4064 52.6513C69.5191 52.3587 69.5733 52.0468 69.566 51.7332C69.5587 51.4196 69.49 51.1105 69.3639 50.8236L69.0342 50.0876C68.8496 49.6636 68.5461 49.303 68.1608 49.0498C67.7755 48.7966 67.3252 48.6619 66.8649 48.662Z" fill="#231815"/>
<path d="M67.9397 62.1488C67.8356 62.4223 67.8157 62.721 67.8828 63.006C67.9498 63.291 68.1006 63.5491 68.3155 63.7468C69.0672 64.3104 69.8914 63.5611 69.8914 63.5611C69.8914 63.5611 70.9991 62.5732 71.4474 63.4351" stroke="#231815" stroke-width="1.7" stroke-miterlimit="10" stroke-linecap="round"/>
</g>
<defs>
<clipPath id="clip0">
<rect width="122" height="141" fill="white"/>
</clipPath>
</defs>
</svg>
